PathFileType	4	(X/Y/Z)	c:/Users/goper/Files/vsCode/490R/osim_files/A06/A06_Fast_01.trc
DataRate	CameraRate	NumFrames	NumMarkers	Units                	OrigDataRate	OrigDataStartFrame	OrigNumFrames
120.00	120.00	9	36	mm	120.0	727	1162
                Frame#	Time	LPSIS			LASIS			LTH1			LTH2			LTH3			LTH4			LLFE			LMFE			LSH1			LSH2			LSH3			LSH4			LLMAL			LMMAL			LCAL			LMTP5			LTOE			LMTP1			RPSIS			RASIS			RTH1			RTH2			RTH3			RTH4			RLFE			RMFE			RSH1			RSH2			RSH3			RSH4			RLMAL			RMMAL			RCAL			RMTP1			RTOE			RMTP5		
		X1	Y1	Z1	X2	Y2	Z2	X3	Y3	Z3	X4	Y4	Z4	X5	Y5	Z5	X6	Y6	Z6	X7	Y7	Z7	X8	Y8	Z8	X9	Y9	Z9	X10	Y10	Z10	X11	Y11	Z11	X12	Y12	Z12	X13	Y13	Z13	X14	Y14	Z14	X15	Y15	Z15	X16	Y16	Z16	X17	Y17	Z17	X18	Y18	Z18	X19	Y19	Z19	X20	Y20	Z20	X21	Y21	Z21	X22	Y22	Z22	X23	Y23	Z23	X24	Y24	Z24	X25	Y25	Z25	X26	Y26	Z26	X27	Y27	Z27	X28	Y28	Z28	X29	Y29	Z29	X30	Y30	Z30	X31	Y31	Z31	X32	Y32	Z32	X33	Y33	Z33	X34	Y34	Z34	X35	Y35	Z35	X36	Y36	Z36

727	6.05000	-1517.43750	1000.23138	282.78500	-1702.02551	951.34216	365.53894	-1735.04163	597.71039	404.83072	-1758.53687	563.15015	401.68286	-1795.01831	623.95850	401.28967	-1807.47095	582.56781	398.02161	-1809.33496	503.50977	389.24493	-1817.02271	503.45740	278.14188	-1724.43347	436.46924	398.62613	-1713.37292	391.69019	403.38779	-1781.90222	412.45575	390.41541	-1762.88159	373.78046	393.23517	-1603.76147	163.84891	350.35507	-1629.34180	168.31601	268.31265	-1541.60791	181.92264	295.83655	-1685.74683	68.53452	368.01440	-1732.54907	75.37171	317.05872	-1710.90039	77.90478	276.84698	-1530.02710	1011.96637	152.97462	-1707.39075	972.75494	106.08763	-1566.87012	597.16351	66.85403	-1569.84021	553.98065	66.61968	-1629.02832	594.25165	73.48429	-1622.60217	551.28015	69.65913	-1586.79797	438.69556	91.73427	-1592.09192	439.19699	180.48619	-1555.17114	284.59152	105.85741	-1552.55200	237.13206	107.86998	-1615.37183	277.02942	114.67832	-1604.95898	229.66827	111.38743	-1541.82104	101.57506	100.43731	-1557.53064	105.78382	181.53218	-1486.34009	83.79161	150.02888	-1688.13843	53.93300	170.50314	-1703.02893	64.98235	128.75824	-1672.27441	48.79519	83.65835
728	6.05833	-1527.87170	1000.37537	282.37378	-1712.16541	950.99426	365.47919	-1748.21777	599.37738	406.35196	-1772.57825	565.19385	403.08929	-1808.33545	626.48138	402.45984	-1821.55469	585.43799	398.97122	-1824.67859	506.39233	390.21939	-1832.44910	506.34119	279.48038	-1743.32825	434.58307	399.65408	-1734.78394	389.53937	404.19476	-1801.77722	414.09451	391.46277	-1784.98462	374.41010	394.08954	-1637.86560	155.39543	350.57437	-1664.52954	161.43221	268.47968	-1575.91602	169.28801	295.48471	-1726.18201	65.57381	368.80386	-1772.95190	75.58515	318.26257	-1752.02734	76.68208	277.98492	-1540.77026	1012.06659	152.56161	-1718.85376	972.50403	106.12935	-1573.54370	597.75714	66.89946	-1576.03845	554.87024	66.51697	-1636.12012	593.93604	73.37044	-1629.18762	551.00360	69.62346	-1591.87744	438.92746	91.62115	-1597.05896	439.39822	180.36983	-1558.30896	285.18463	105.75066	-1555.22754	237.72394	107.81125	-1618.58667	276.87198	114.64291	-1606.10229	228.88600	110.89470	-1542.10828	101.83857	100.34584	-1557.75354	105.93858	181.49072	-1486.50159	84.03665	149.98616	-1688.27502	53.70052	170.51149	-1703.28455	64.67064	128.80753	-1672.49011	48.66479	83.70757
729	6.06667	-1539.33972	999.88690	282.42932	-1722.41895	950.39252	365.52316	-1760.99683	600.62207	407.83704	-1786.14612	566.86670	404.37601	-1821.44141	628.54114	403.47314	-1835.00073	587.63898	399.82397	-1839.43164	508.75830	391.24072	-1847.07568	508.61859	280.64233	-1761.46924	432.58740	400.42068	-1755.77747	387.23560	404.94159	-1821.05762	415.56070	392.46017	-1806.63098	374.96008	395.07584	-1673.73853	147.16573	350.82547	-1700.03845	155.08064	269.16360	-1611.00659	156.84779	295.60190	-1766.92065	63.48447	370.13928	-1813.33240	76.63911	319.98819	-1792.36035	75.77826	279.48370	-1551.59705	1011.97400	152.22385	-1729.09595	971.62738	106.26614	-1580.49170	598.16791	66.70782	-1582.62390	555.19543	66.42541	-1643.30078	593.48444	73.31736	-1635.65356	550.66949	69.50497	-1596.77063	439.10236	91.45639	-1601.92737	439.50891	180.26201	-1561.34021	285.80423	105.62299	-1557.76892	238.37006	107.69145	-1621.62988	276.70306	114.67413	-1609.87854	229.64319	111.31574	-1542.39160	102.09267	100.21175	-1557.97864	106.13325	181.37517	-1486.62048	84.36571	149.81609	-1688.34534	53.54587	170.44170	-1703.32751	64.29765	128.77702	-1672.98132	48.36931	83.85712
730	6.07500	-1550.04724	999.47705	282.19006	-1732.81750	949.49457	365.67310	-1774.77881	601.45312	408.16721	-1799.43042	567.99396	405.52777	-1834.09509	630.04089	404.43161	-1848.13708	589.32153	400.79691	-1853.49683	510.74017	392.08057	-1861.05872	510.35672	281.83673	-1779.58032	430.18842	400.95285	-1774.66833	383.87006	404.91412	-1839.77380	416.88690	393.70538	-1827.80835	375.44193	396.32785	-1709.50854	139.50494	351.67673	-1735.87476	149.24724	270.24893	-1646.74231	145.06836	295.95935	-1807.69470	62.71239	372.25378	-1853.64832	79.20264	322.63644	-1832.51038	75.56495	281.91852	-1562.49023	1011.69598	152.05927	-1739.90259	970.71027	106.34989	-1587.40613	598.44214	66.43699	-1589.26135	555.49377	66.36478	-1650.45020	593.00403	73.30058	-1642.19678	550.21405	69.38467	-1602.13708	439.02463	91.38638	-1607.03467	439.56821	180.19006	-1564.51184	286.36966	105.58073	-1560.20679	238.95056	107.58648	-1624.65808	276.45206	114.62625	-1612.30798	229.62309	111.26309	-1542.94995	102.26462	100.19376	-1558.51111	106.16554	181.20227	-1486.83496	84.63812	149.65724	-1688.52258	53.32626	170.47139	-1703.60046	64.15783	128.68039	-1672.89868	48.41524	83.77888
731	6.08333	-1559.86218	999.41492	281.75385	-1743.21985	948.36230	365.88367	-1787.25085	602.05371	409.15222	-1812.25317	568.42969	406.18759	-1846.77319	630.76593	405.07471	-1860.34497	591.13263	400.52286	-1866.97827	512.05420	392.88727	-1874.44226	511.47003	282.90213	-1796.78149	427.52228	401.45175	-1794.74463	381.04965	405.64905	-1857.68494	417.99066	394.86026	-1848.27991	375.79376	397.62949	-1745.53284	132.53703	352.93600	-1771.75232	144.28343	271.74020	-1682.65112	134.07904	296.58603	-1848.44702	62.65885	374.73221	-1893.44482	82.08400	325.51273	-1872.96216	76.85659	284.48322	-1573.46033	1011.32220	151.97098	-1750.79309	969.69653	106.48627	-1594.57849	598.55792	66.42584	-1595.79114	555.73969	66.31444	-1657.51294	592.42902	73.37477	-1648.78442	549.73151	69.40836	-1607.23328	439.04388	91.38245	-1612.05457	439.53149	180.19196	-1567.67700	286.87006	105.48703	-1562.66443	239.56969	107.47533	-1627.64368	276.22858	114.60412	-1614.68005	229.51274	111.27635	-1543.27307	102.45694	100.05184	-1558.78784	106.31296	181.06235	-1486.96289	84.94419	149.49649	-1688.59009	53.12959	170.50464	-1703.73474	63.91320	128.67654	-1673.07288	48.33744	83.76911
732	6.09167	-1572.14319	997.93378	282.26971	-1753.84180	947.00238	366.11121	-1799.26965	602.32227	410.00836	-1825.09216	568.86420	406.57373	-1858.71875	631.21094	405.67755	-1872.54639	591.73706	401.18466	-1879.76624	512.92877	393.47293	-1887.10828	512.01495	283.78552	-1813.52783	424.56442	401.83087	-1814.37610	378.08154	406.37814	-1875.08191	418.80923	396.01376	-1868.18335	376.05774	399.09445	-1781.68591	126.30588	354.65527	-1807.38367	138.98613	273.74622	-1719.81873	123.56551	297.67188	-1888.97375	63.75066	377.69119	-1932.95557	86.17451	328.90506	-1913.61487	80.08651	288.12994	-1584.30847	1010.85077	152.00095	-1761.75977	968.43488	106.66407	-1602.43384	598.67615	67.19412	-1602.44092	555.85858	66.32166	-1664.67578	591.76111	73.46294	-1655.02124	549.26758	69.22537	-1612.38770	439.03604	91.39135	-1617.02161	439.45993	180.15863	-1570.82117	287.33188	105.44797	-1565.27307	240.13057	107.43936	-1630.64758	276.01212	114.64182	-1617.06384	229.53947	111.22765	-1543.62280	102.69106	99.91107	-1559.01965	106.48005	180.96349	-1487.08130	85.22733	149.30473	-1688.63794	52.84054	170.58694	-1703.90015	63.65175	128.73795	-1673.30054	48.28367	83.79494
733	6.10000	-1582.45483	997.38257	282.41986	-1764.71497	945.52466	366.42349	-1811.21851	602.07983	410.72086	-1837.03540	568.76471	407.21112	-1870.27209	631.32745	406.10556	-1884.83960	591.83124	401.55319	-1891.90918	513.20331	393.85706	-1899.13147	511.95438	284.38495	-1830.08057	421.24652	402.17773	-1833.72827	374.95654	407.06699	-1891.97742	419.43570	397.25223	-1887.68359	376.35995	400.55621	-1818.16260	121.01285	356.92014	-1843.57117	135.42059	276.07516	-1757.05615	113.82772	299.49576	-1929.58606	66.18284	381.16284	-1972.02380	91.47835	332.61172	-1953.51428	83.96446	291.66794	-1595.34509	1010.18768	152.29974	-1772.66016	967.07062	106.85014	-1609.69849	598.73077	67.27897	-1609.19690	555.87244	66.37423	-1671.67761	591.00049	73.53627	-1661.55688	548.56317	69.35152	-1617.48572	438.93845	91.39659	-1621.97559	439.31030	180.19843	-1574.00720	287.77167	105.39729	-1567.82275	240.64720	107.36698	-1633.70337	275.77597	114.59927	-1619.43005	229.43617	111.18633	-1543.68628	102.96985	99.65144	-1559.27576	106.67007	180.89633	-1487.29248	85.51704	149.09212	-1688.74854	52.70157	170.61656	-1704.11487	63.33103	128.90205	-1673.40186	48.29675	83.73453
734	6.10833	-1593.46313	996.29291	282.78854	-1775.69763	943.76373	366.72281	-1822.33630	601.24371	411.06815	-1848.57959	568.16687	407.73499	-1881.40820	630.83575	406.33170	-1896.01819	591.30664	401.78830	-1903.57324	512.95221	394.04837	-1910.50867	511.27704	284.76532	-1846.23792	417.65289	402.53851	-1852.78870	371.73849	407.86957	-1908.06628	419.88702	398.45947	-1906.61877	376.53061	402.02267	-1854.55542	116.57227	359.67630	-1879.17273	132.62952	278.62448	-1794.46423	105.01998	302.00424	-1969.26929	69.84130	384.80621	-2010.06091	97.88474	336.50616	-1992.54993	88.96883	295.50064	-1606.31067	1009.49036	152.66393	-1784.20398	965.87946	106.99918	-1617.29602	598.70721	67.24639	-1615.89331	555.91217	66.44340	-1678.88354	590.15741	73.72997	-1668.28320	547.87628	69.53031	-1622.59790	438.85370	91.42066	-1626.95923	439.14749	180.28896	-1577.21814	288.21014	105.38940	-1570.35522	241.21616	107.21911	-1636.74084	275.44724	114.60392	-1621.80164	229.30095	111.21425	-1544.26245	103.19424	99.61517	-1559.50330	106.82414	180.80878	-1487.21082	85.94447	148.87489	-1688.77332	52.52807	170.65457	-1704.29065	63.12535	128.95752	-1673.55371	48.23021	83.75257
735	6.11667	-1604.67017	994.99109	283.40887	-1786.90833	941.91992	367.08014	-1833.17200	599.73804	411.25107	-1859.78027	566.83771	407.91034	-1892.12061	629.67883	406.41843	-1907.10168	590.30603	401.97696	-1914.83875	511.96124	394.02298	-1921.32764	509.93362	284.83948	-1862.33984	413.77603	403.05698	-1871.81506	368.43405	408.85553	-1923.98389	420.05457	399.36450	-1925.36243	376.61658	403.36502	-1890.83350	113.15286	363.02216	-1914.88550	130.79912	282.05038	-1831.80933	97.02835	305.53751	-2008.19202	74.78452	388.60605	-2047.19800	105.46900	340.33603	-2030.56799	95.22913	299.34424	-1617.29712	1008.58051	153.23062	-1793.90320	964.13867	107.24451	-1624.26526	598.64911	67.55676	-1622.64758	555.82739	66.56890	-1686.04614	589.25354	73.97445	-1674.89648	547.10046	69.65035	-1627.77209	438.66043	91.54966	-1632.16052	438.86169	180.37947	-1580.27734	288.61011	105.36140	-1573.03662	241.62526	107.23220	-1639.24805	274.18954	113.64170	-1624.21375	229.22105	111.19623	-1544.33789	103.47135	99.42368	-1559.79102	107.00546	180.76035	-1487.66467	86.12644	148.70622	-1688.85034	52.36186	170.67621	-1704.47534	62.86355	129.00185	-1673.72644	48.13783	83.72986
